<svg id="revizeLogo" xmlns="http://www.w3.org/2000/svg" width="193.798" height="57.029" viewBox="0 0 193.798 57.029">
  <rect id="Rectangle_20406" data-name="Rectangle 20406" width="84.388" height="57.029" rx="7.207" fill="#fb9b00"/>
  <g id="Group_28" data-name="Group 28" transform="translate(-197.333 -307.966)">
    <g id="Group_26" data-name="Group 26">
      <path id="Path_1" data-name="Path 1" d="M228.487,322.433c.613.15.892.452.892,1v4.12c0,.5-.335.754-.948.754h-5.242c-3.066,0-3.9.5-3.9,2.562v18.592c0,.553-.278.8-.836.8h-6.635c-.558,0-.837-.251-.837-.8v-20.5a6.775,6.775,0,0,1,2.063-5.226c2.064-1.558,4.907-1.859,8.03-1.859A39.87,39.87,0,0,1,228.487,322.433Z" fill="#162445"/>
      <path id="Path_2" data-name="Path 2" d="M257.145,324.694c1.84,1.859,2.732,5.577,2.788,11.155v1.557c0,1.005-.39,1.357-1.784,1.357H240.641c.055,2.211.446,3.668,1.282,4.322s2.509,1,5.018,1h9.87q.836,0,.836.754v4.171a.774.774,0,0,1-.781.8,63.027,63.027,0,0,1-10.649.7q-8.448,0-11.208-2.864c-1.84-1.909-2.788-5.728-2.788-11.456,0-5.779.948-9.6,2.788-11.457q2.76-2.863,11.208-2.864C251.737,321.88,255.361,322.835,257.145,324.694Zm-16.56,9.2h11.04c-.056-4.371-1.338-5.577-5.408-5.577C241.979,328.312,240.641,329.518,240.585,333.889Z" fill="#162445"/>
    </g>
    <g id="Group_27" data-name="Group 27">
      <path id="Path_3" data-name="Path 3" d="M273.667,346.282c0,2.864-1.687,4.622-4.559,4.622-2.962,0-4.649-1.658-4.649-4.622,0-2.865,1.687-4.573,4.649-4.573A4.187,4.187,0,0,1,273.667,346.282Z" fill="#162445"/>
    </g>
  </g>
  <path id="Path_4" data-name="Path 4" d="M245.858,311.052c.078-.2.151-.38.219-.547H207.87a8,8,0,0,0-7.975,7.974v35.385a7.9,7.9,0,0,0,.326,2.245h0c.016.054.032.108.049.162.228-.074.451-.151.677-.227A49.891,49.891,0,0,0,245.858,311.052Z" transform="translate(-197.333 -307.966)" fill="#fff" opacity="0.3"/>
  <g id="Group_31" data-name="Group 31" transform="translate(-197.333 -307.966)">
    <g id="Group_29" data-name="Group 29">
      <path id="Path_5" data-name="Path 5" d="M317.274,321.966c.6,0,.811.241.7.773l-6.106,20.795c-.811,2.611-1.676,4.207-2.594,4.835s-2.972.92-6.215.92c-3.134,0-5.133-.291-6.052-.92-.865-.628-1.675-2.224-2.485-4.835L288.2,322.739c-.108-.532.108-.773.7-.773h6.863c.433,0,.541.145.7.773l5.4,19.295c.379,1.161.487,1.355,1.189,1.355.865,0,.973-.194,1.351-1.355l5.3-19.295c.163-.58.216-.773.7-.773Z" fill="#fa9b00"/>
      <path id="Path_6" data-name="Path 6" d="M330.671,314.422c0,2.465-1.675,3.917-4.647,3.917-3.026,0-4.755-1.452-4.755-3.917s1.729-3.87,4.755-3.87C329,310.552,330.671,311.955,330.671,314.422Zm-1.513,7.544q.81,0,.811.725v25.581c0,.533-.271.775-.811.775h-6.377c-.54,0-.81-.242-.81-.775V322.691q0-.726.81-.725Z" fill="#fa9b00"/>
      <path id="Path_7" data-name="Path 7" d="M358.93,321.966c.6,0,.919.241.919.725v3.288a1.447,1.447,0,0,1-.379.919l-13.292,15.959h13.454c.6,0,.92.242.92.725v4.69c0,.533-.325.775-.92.775h-24.1c-.649,0-.973-.242-.973-.775v-3.143a1.443,1.443,0,0,1,.379-.918l13.725-16.2H336.126c-.594,0-.918-.241-.918-.725v-4.594c0-.484.324-.725.918-.725Z" fill="#fa9b00"/>
      <path id="Path_8" data-name="Path 8" d="M388.43,324.432c1.783,1.789,2.648,5.367,2.7,10.735v1.5c0,.967-.378,1.3-1.729,1.3H372.435c.054,2.128.432,3.53,1.243,4.159s2.432.968,4.863.968h9.565q.81,0,.811.725v4.013a.747.747,0,0,1-.757.774,61.371,61.371,0,0,1-10.321.678q-8.187,0-10.862-2.757c-1.783-1.838-2.7-5.513-2.7-11.026,0-5.561.919-9.237,2.7-11.026q2.675-2.757,10.862-2.756C383.189,321.724,386.7,322.642,388.43,324.432Zm-16.049,8.85h10.7c-.053-4.208-1.3-5.368-5.241-5.368C373.732,327.914,372.435,329.074,372.381,333.282Z" fill="#fa9b00"/>
    </g>
    <g id="Group_30" data-name="Group 30">
      <path id="Path_9" data-name="Path 9" d="M300.121,354.19a2.975,2.975,0,0,1,.559,2.129,3.54,3.54,0,0,1-.516,2.255,2.552,2.552,0,0,1-1.966.581,13,13,0,0,1-1.322-.059V360.9c0,.1-.053.147-.161.147h-1.268c-.108,0-.161-.049-.161-.147v-6.841a.239.239,0,0,1,.225-.242,16.321,16.321,0,0,1,2.364-.183A3.284,3.284,0,0,1,300.121,354.19Zm-3.245.687v2.97a7.6,7.6,0,0,0,.968.059c.537,0,.881-.1,1.021-.28a2.194,2.194,0,0,0,.225-1.229,2.572,2.572,0,0,0-.193-1.22c-.129-.2-.441-.3-.946-.3Z" fill="#fff"/>
      <path id="Path_10" data-name="Path 10" d="M305.985,353.744c.118.03.172.088.172.194v.793c0,.1-.064.146-.182.146h-1.011c-.591,0-.752.1-.752.493v3.581c0,.106-.054.155-.161.155h-1.279c-.107,0-.161-.049-.161-.155V355a1.307,1.307,0,0,1,.4-1.007,2.542,2.542,0,0,1,1.548-.357A7.776,7.776,0,0,1,305.985,353.744Z" fill="#fff"/>
      <path id="Path_11" data-name="Path 11" d="M312.558,354.2c.431.426.538,1.046.538,2.2a3.281,3.281,0,0,1-.538,2.215,4.74,4.74,0,0,1-4.406,0,3.293,3.293,0,0,1-.537-2.215,3.245,3.245,0,0,1,.537-2.207,3.157,3.157,0,0,1,2.2-.551C311.516,353.639,312.129,353.764,312.558,354.2Zm-3.137.978a2.347,2.347,0,0,0-.2,1.22,2.415,2.415,0,0,0,.2,1.229c.139.192.451.29.935.29s.8-.1.934-.29a2.389,2.389,0,0,0,.215-1.229,2.321,2.321,0,0,0-.215-1.22c-.139-.2-.451-.3-.934-.3S309.56,354.973,309.421,355.177Z" fill="#fff"/>
      <path id="Path_12" data-name="Path 12" d="M318.551,351.664c.118.02.172.077.172.184v.8c0,.107-.064.155-.183.155h-.849c-.441,0-.6.067-.6.377v.513H318.4c.107,0,.15.058.129.165l-.161.812a.173.173,0,0,1-.183.137h-1.1v4.141c0,.106-.054.155-.161.155h-1.268c-.108,0-.162-.049-.162-.155V354.81h-.7c-.118,0-.183-.049-.183-.146v-.823c0-.1.065-.145.183-.145h.7v-.764a1.139,1.139,0,0,1,.591-1.142,2.783,2.783,0,0,1,1.3-.223A6.511,6.511,0,0,1,318.551,351.664Z" fill="#fff"/>
      <path id="Path_13" data-name="Path 13" d="M324.77,354.18a3.182,3.182,0,0,1,.537,2.149v.3c0,.194-.075.261-.344.261h-3.374c.011.427.086.707.248.833a1.7,1.7,0,0,0,.967.194h1.9c.108,0,.161.049.161.145v.8a.148.148,0,0,1-.15.154,12.036,12.036,0,0,1-2.053.137,3.058,3.058,0,0,1-2.16-.553,4.8,4.8,0,0,1,0-4.412,3.059,3.059,0,0,1,2.16-.551A2.972,2.972,0,0,1,324.77,354.18Zm-3.192,1.77h2.128c-.011-.841-.257-1.073-1.042-1.073C321.847,354.877,321.589,355.109,321.578,355.95Z" fill="#fff"/>
      <path id="Path_14" data-name="Path 14" d="M331.171,353.764c.119.029.172.077.172.155v.736c0,.106-.064.155-.182.155h-1.935c-.419,0-.634.115-.634.347v.1c0,.184.172.338.516.445l1.376.436a1.352,1.352,0,0,1,1.128,1.452v.155c0,1.054-.8,1.413-2.289,1.413-.795,0-1.537-.03-2.224-.1-.119,0-.183-.049-.183-.145v-.784c0-.1.064-.145.183-.145h2.2c.57,0,.742-.067.742-.328v-.088c0-.194-.129-.31-.591-.455l-1.322-.425a1.411,1.411,0,0,1-1.1-1.472v-.183c0-1,.817-1.393,2.439-1.393A10.653,10.653,0,0,1,331.171,353.764Z" fill="#fff"/>
      <path id="Path_15" data-name="Path 15" d="M338.7,353.687c.107,0,.161.048.161.145v5.158a2.465,2.465,0,0,1-.269,1.364c-.279.522-1,.755-2.364.755a13.42,13.42,0,0,1-2.021-.136.148.148,0,0,1-.149-.154v-.735a.132.132,0,0,1,.149-.147h1.881c.935,0,1.171-.183,1.171-.831v-.059a8.193,8.193,0,0,1-1.31.108,2.075,2.075,0,0,1-2.537-2.5v-2.826c0-.1.054-.145.161-.145h1.279c.108,0,.161.048.161.145v2.555a2.1,2.1,0,0,0,.237,1.229,1.39,1.39,0,0,0,1.053.29,6.137,6.137,0,0,0,.956-.059v-4.015c0-.1.054-.145.162-.145Z" fill="#fff"/>
      <path id="Path_16" data-name="Path 16" d="M345.768,354.2c.43.426.538,1.046.538,2.2a3.292,3.292,0,0,1-.538,2.215,4.74,4.74,0,0,1-4.406,0,3.287,3.287,0,0,1-.537-2.215,3.24,3.24,0,0,1,.537-2.207,3.156,3.156,0,0,1,2.2-.551C344.726,353.639,345.338,353.764,345.768,354.2Zm-3.138.978a2.35,2.35,0,0,0-.2,1.22,2.418,2.418,0,0,0,.2,1.229c.14.192.451.29.935.29s.795-.1.935-.29a2.389,2.389,0,0,0,.215-1.229,2.321,2.321,0,0,0-.215-1.22c-.14-.2-.452-.3-.935-.3S342.77,354.973,342.63,355.177Z" fill="#fff"/>
      <path id="Path_17" data-name="Path 17" d="M353.05,354.064c.429.349.537.891.537,1.9v2.991c0,.106-.054.155-.172.155h-1.268c-.108,0-.162-.049-.162-.155v-2.622c0-.727-.01-1.036-.215-1.239-.182-.2-.375-.213-.934-.213h-.978v4.074c0,.106-.054.155-.162.155h-1.278c-.108,0-.161-.049-.161-.155v-5c0-.116.053-.126.161-.146a14.729,14.729,0,0,1,2.568-.163A3.078,3.078,0,0,1,353.05,354.064Z" fill="#fff"/>
      <path id="Path_18" data-name="Path 18" d="M360.31,354.18a3.186,3.186,0,0,1,.538,2.149v.3c0,.194-.075.261-.344.261h-3.375c.012.427.087.707.248.833a1.692,1.692,0,0,0,.967.194h1.9c.108,0,.161.049.161.145v.8a.148.148,0,0,1-.15.154,12.036,12.036,0,0,1-2.053.137,3.06,3.06,0,0,1-2.16-.553,4.8,4.8,0,0,1,0-4.412,3.061,3.061,0,0,1,2.16-.551A2.971,2.971,0,0,1,360.31,354.18Zm-3.191,1.77h2.127c-.01-.841-.257-1.073-1.042-1.073C357.387,354.877,357.129,355.109,357.119,355.95Z" fill="#fff"/>
      <path id="Path_19" data-name="Path 19" d="M364.142,351.616c.108,0,.161.048.161.145v7.19c0,.106-.053.155-.161.155h-1.268c-.107,0-.161-.049-.161-.155v-7.19c0-.1.054-.145.161-.145Z" fill="#fff"/>
      <path id="Path_20" data-name="Path 20" d="M374.293,353.929c.066,0,.1.028.087.1l-1.268,4.025a2.873,2.873,0,0,1-.387.939,1.029,1.029,0,0,1-.709.165.964.964,0,0,1-.678-.165,3.359,3.359,0,0,1-.4-.939l-1.279-4.025c-.022-.069,0-.1.075-.1h.419a.091.091,0,0,1,.1.087l1.235,3.91a2.861,2.861,0,0,0,.226.629.357.357,0,0,0,.3.116.375.375,0,0,0,.322-.116,2.693,2.693,0,0,0,.236-.629l1.215-3.91a.09.09,0,0,1,.1-.087Z" fill="#fff"/>
      <path id="Path_21" data-name="Path 21" d="M377.137,352.555c0,.242-.128.367-.4.367s-.387-.125-.387-.367.129-.349.387-.349S377.137,352.322,377.137,352.555Zm-.2,1.374c.064,0,.1.028.1.087v5c0,.058-.033.088-.1.088h-.377c-.064,0-.1-.03-.1-.088v-5c0-.059.032-.087.1-.087Z" fill="#fff"/>
      <path id="Path_22" data-name="Path 22" d="M383.454,353.929c.076,0,.108.028.108.087v.135a.216.216,0,0,1-.064.135l-3.611,4.355h3.643c.075,0,.108.03.108.1v.271c0,.068-.033.1-.108.1H379.2c-.075,0-.118-.03-.118-.088v-.163a.18.18,0,0,1,.076-.137l3.588-4.335h-3.406c-.076,0-.107-.029-.107-.087v-.28c0-.059.031-.087.107-.087Z" fill="#fff"/>
      <path id="Path_23" data-name="Path 23" d="M389.544,354.345A3.129,3.129,0,0,1,390,356.3v.28c0,.147-.032.185-.237.185h-3.642a2.623,2.623,0,0,0,.344,1.548,1.76,1.76,0,0,0,1.343.376h1.6c.075,0,.107.03.107.1v.222c0,.049-.032.078-.1.088a16.078,16.078,0,0,1-1.611.059,2.35,2.35,0,0,1-1.827-.524,3.562,3.562,0,0,1-.43-2.128,3.222,3.222,0,0,1,.419-2.11c.344-.426.86-.532,1.838-.532A2.352,2.352,0,0,1,389.544,354.345Zm-3.1.368a2.678,2.678,0,0,0-.332,1.576h3.309a2.829,2.829,0,0,0-.322-1.586,1.668,1.668,0,0,0-1.3-.378A1.739,1.739,0,0,0,386.449,354.713Z" fill="#fff"/>
    </g>
  </g>
</svg>
